<svg width="51" height="46" viewBox="0 0 51 46" fill="none" xmlns="http://www.w3.org/2000/svg">
<path d="M47.978 5.08154L44.7059 3.72646V25.5771L50.6396 11.3972C51.6408 8.92898 50.4931 6.09784 47.978 5.08154ZM0.362247 14.0347L12.4737 42.9511C12.8304 43.8309 13.4387 44.5882 14.224 45.1299C15.0092 45.6715 15.9371 45.974 16.8935 46C17.5283 46 18.1876 45.879 18.8225 45.6128L36.8188 38.2325C38.6502 37.4824 39.7734 35.6917 39.8223 33.9011C39.8467 33.272 39.7246 32.5702 39.5048 31.9411L27.2957 3.02472C26.9505 2.13913 26.3444 1.377 25.5561 0.837526C24.7678 0.29805 23.8339 0.00621336 22.876 0C22.2411 0 21.6062 0.145187 20.9957 0.362967L3.02385 7.74329C1.82921 8.22808 0.877746 9.16316 0.378638 10.3429C-0.12047 11.5227 -0.126366 12.8506 0.362247 14.0347ZM39.7979 4.83956C39.7979 3.55603 39.2833 2.32507 38.3675 1.41747C37.4516 0.50988 36.2094 0 34.9142 0H31.3735L39.7979 20.181" fill="white"/>
</svg>
